<?xml version="1.0" standalone="no"?>
<!DOCTYPE svg PUBLIC "-//W3C//DTD SVG 20010904//EN"
 "http://www.w3.org/TR/2001/REC-SVG-20010904/DTD/svg10.dtd">
<svg version="1.0" xmlns="http://www.w3.org/2000/svg"
 width="800.000000pt" height="581.000000pt" viewBox="0 0 800.000000 581.000000"
 preserveAspectRatio="xMidYMid meet">
<metadata>
Created by potrace 1.15, written by Peter Selinger 2001-2017
</metadata>
<g transform="translate(0.000000,581.000000) scale(0.100000,-0.100000)"
fill="#000000" stroke="none">
<path d="M7670 5379 c-367 -10 -867 -17 -1080 -17 -193 0 -154 2 -365 -11 -99
-5 -281 -12 -405 -15 -361 -8 -1171 -35 -1350 -45 -91 -6 -300 -8 -465 -5
-412 7 -606 7 -765 -4 -74 -4 -196 -7 -270 -5 -287 7 -872 3 -1062 -7 -109 -6
-208 -8 -219 -5 -11 4 -25 2 -32 -3 -7 -5 -66 -9 -132 -10 -412 -3 -872 -11
-885 -15 -16 -6 -360 -16 -537 -17 l-103 0 0 -2031 0 -2030 153 5 c83 4 163 8
177 11 14 2 41 7 60 9 19 3 58 10 85 16 28 5 93 17 145 25 52 8 118 20 145 25
28 6 58 13 68 15 13 2 17 -1 13 -11 -3 -8 -1 -14 3 -14 5 0 12 7 15 16 4 12
14 15 34 11 15 -3 36 0 46 5 26 14 118 34 191 42 33 4 84 12 114 18 49 9 56 8
68 -8 11 -15 13 -15 13 -2 0 17 45 27 220 48 52 6 125 15 162 21 37 5 87 9
112 9 24 0 56 4 70 9 19 8 30 6 52 -11 23 -19 28 -20 38 -6 8 11 15 12 27 5
20 -13 64 -2 88 22 14 14 34 19 75 20 34 0 54 -4 51 -9 -4 -6 -2 -10 4 -10 5
0 12 9 16 19 5 16 17 20 70 23 36 1 65 0 65 -4 0 -4 -26 -8 -57 -10 -33 -2
-57 -7 -55 -13 4 -18 198 -7 272 15 19 6 73 11 120 11 46 -1 102 4 124 10 22
6 59 12 81 14 22 1 48 6 58 10 9 4 29 5 42 3 14 -3 25 -2 25 1 0 8 125 41 160
42 19 1 14 4 -19 15 -35 11 -53 11 -84 2 -31 -9 -40 -9 -47 1 -5 8 -13 10 -21
5 -11 -6 -12 -5 -2 7 7 8 31 16 55 17 24 2 51 5 61 8 9 3 17 1 17 -4 0 -6 8
-8 19 -5 10 3 22 0 25 -6 5 -8 13 -8 26 -1 11 6 23 10 27 9 4 -1 25 -1 46 0
43 1 50 18 10 23 -16 2 18 5 74 6 94 2 128 -6 108 -26 -3 -3 -10 0 -15 8 -7
12 -13 12 -37 1 -16 -8 -23 -16 -15 -18 26 -10 -2 -23 -51 -24 -29 -1 -65 -5
-82 -9 l-30 -7 38 -8 c21 -4 53 -5 72 -2 27 4 33 3 28 -9 -7 -18 17 -18 43 0
41 29 224 60 251 43 6 -4 13 0 17 8 3 8 13 15 23 15 14 0 15 2 5 9 -8 5 -40 8
-72 7 -38 -1 -53 2 -43 8 13 7 13 10 2 17 -14 9 -5 8 66 -6 14 -3 25 -1 25 5
0 5 7 10 16 10 8 0 12 5 9 10 -4 6 6 10 22 9 25 0 26 -1 8 -10 -21 -10 76 -5
149 7 26 5 37 4 33 -3 -4 -6 0 -14 9 -17 8 -3 12 -2 9 4 -6 9 18 14 67 14 9 0
15 3 12 8 -9 14 23 9 36 -6 16 -21 39 -9 34 17 -2 12 -2 16 2 10 3 -7 15 -13
25 -13 34 0 10 20 -31 26 -22 4 -38 10 -35 14 14 23 334 52 395 35 17 -5 21
-4 11 3 -9 7 0 11 34 17 82 12 68 -10 -19 -31 -64 -15 -83 -17 -79 -7 8 22
-27 15 -47 -9 -16 -20 -20 -21 -35 -8 -16 13 -16 14 2 21 12 5 4 8 -24 8 -24
1 -43 -4 -43 -10 0 -5 4 -7 10 -4 6 3 7 -1 4 -9 -4 -12 0 -16 16 -16 16 0 20
-4 16 -15 -4 -12 3 -15 29 -15 31 0 47 5 110 31 11 4 44 11 73 14 30 3 58 7
62 10 12 7 130 26 165 26 l30 0 -25 11 c-14 5 -46 8 -72 5 -30 -2 -45 0 -41 6
4 6 37 7 87 3 87 -8 178 -8 186 0 2 3 -2 9 -10 14 -12 8 -10 10 8 10 12 0 22
-4 22 -9 0 -12 70 -2 87 12 7 5 10 14 6 20 -4 6 -1 7 7 2 19 -11 80 -8 96 6 8
6 25 8 39 5 19 -5 23 -3 19 8 -4 10 2 17 18 20 66 14 97 16 103 6 8 -13 42
-13 50 0 4 7 -3 8 -22 4 -15 -4 -25 -3 -20 1 4 5 29 12 55 16 26 4 56 9 67 12
11 2 14 2 8 0 -7 -3 -13 -11 -13 -18 0 -8 6 -12 13 -9 8 3 19 -2 26 -9 9 -12
8 -16 -4 -21 -9 -3 -13 -2 -10 4 3 6 2 10 -4 10 -5 0 -12 -4 -15 -8 -3 -5 -18
-7 -34 -4 -31 4 -67 -22 -56 -40 7 -10 37 -7 92 10 40 13 41 7 2 -13 -42 -22
-92 -19 -108 5 -10 17 -16 19 -34 9 -11 -6 -70 -12 -129 -14 -60 -1 -114 -7
-121 -12 -7 -6 -28 -14 -45 -18 -18 -3 -33 -10 -33 -15 0 -4 -29 -11 -65 -15
-36 -3 -67 -10 -69 -13 -5 -8 129 3 197 16 30 5 50 5 54 0 3 -6 20 -8 38 -6
19 2 32 1 29 -4 -2 -4 27 -7 66 -6 38 0 67 4 64 9 -3 5 -15 9 -28 9 -20 0 -46
16 -46 30 0 11 94 4 98 -8 5 -15 54 -16 102 -2 18 5 36 6 39 1 4 -4 15 -5 26
0 l20 8 -20 1 -20 1 20 11 c11 6 22 14 25 18 8 11 81 20 75 9 -4 -5 -17 -9
-31 -9 -13 0 -24 -4 -24 -10 0 -16 94 -12 116 6 14 11 15 14 3 11 -9 -3 -22
-1 -30 4 -11 7 -9 10 8 15 13 4 20 10 17 16 -3 5 -14 6 -24 3 -11 -3 -28 -1
-40 5 -16 9 -22 8 -26 -5 -3 -8 -10 -15 -15 -15 -20 0 12 38 37 44 24 6 26 19
3 22 -5 1 -15 2 -21 3 -32 5 34 19 76 16 60 -4 73 -15 17 -15 -30 0 -41 -4
-38 -12 2 -7 11 -11 18 -9 25 8 104 0 114 -10 7 -7 -2 -8 -27 -4 -25 5 -38 4
-38 -4 0 -6 8 -11 18 -11 10 0 23 -5 29 -11 9 -9 21 -8 48 5 44 21 39 32 -20
40 -36 6 -45 11 -45 27 0 24 9 24 40 1 21 -14 47 -17 147 -17 66 0 117 3 111
6 -14 9 43 19 81 14 17 -2 31 0 31 4 0 5 51 7 114 5 94 -3 115 -2 120 11 3 8
0 14 -6 12 -6 -1 -13 4 -16 12 -3 8 1 12 9 9 20 -7 51 11 43 24 -5 8 1 9 17 5
38 -10 128 3 123 18 -4 9 7 12 38 12 24 0 70 5 102 11 32 6 65 8 73 3 10 -5 5
-8 -17 -9 -47 -1 -50 -12 -4 -12 52 0 85 10 77 23 -4 6 1 8 13 5 34 -10 39
-10 62 -9 26 1 30 20 5 23 -10 0 32 5 92 9 61 4 135 10 165 13 72 8 241 24
260 24 29 1 356 32 494 47 76 8 142 15 147 15 5 0 9 385 9 875 0 815 -1 875
-17 875 -16 0 -16 1 0 13 16 11 17 64 15 726 -2 466 -6 715 -13 716 -5 1 -147
-2 -315 -6z m-5253 -353 c3 -3 -11 -6 -32 -6 -24 0 -43 -6 -52 -17 -8 -10 -12
-12 -8 -5 4 8 -1 12 -14 12 -12 0 -21 -4 -21 -10 0 -5 -8 -10 -17 -10 -12 0
-14 3 -6 8 13 8 -149 7 -209 -2 -26 -3 -38 -1 -38 7 0 9 -2 9 -8 0 -4 -7 -23
-12 -42 -12 -262 1 -510 6 -515 11 -7 7 217 19 535 28 267 8 417 7 427 -4z
m2849 -491 c-11 -8 -28 -12 -38 -9 -11 3 -24 2 -31 -3 -7 -5 -32 -15 -55 -22
-24 -7 -42 -14 -39 -17 2 -2 16 0 31 6 43 16 65 12 31 -6 -21 -11 -43 -13 -77
-9 -40 6 -48 4 -58 -14 -8 -16 -20 -21 -53 -21 -23 0 -55 -7 -71 -15 -15 -8
-36 -15 -45 -15 -9 0 -25 -7 -35 -15 -10 -8 -22 -12 -26 -10 -4 2 -17 -5 -29
-16 -12 -11 -45 -24 -74 -29 -28 -5 -79 -20 -112 -34 -95 -38 -102 -39 -108
-17 -3 13 -1 18 8 14 8 -2 31 8 52 22 21 15 29 24 18 20 -11 -4 -49 -17 -85
-30 -36 -12 -90 -31 -120 -42 -30 -11 -76 -22 -103 -25 -41 -5 -45 -4 -30 8
10 7 14 14 9 14 -22 1 -188 -58 -251 -88 -38 -19 -81 -36 -95 -37 -38 -3 -42
-4 -37 -12 3 -5 -7 -8 -22 -9 -29 -1 -154 -57 -146 -66 3 -2 -1 -5 -7 -6 -7 0
-24 -4 -38 -8 -44 -12 -10 12 75 54 44 22 91 43 105 47 14 4 48 17 75 30 69
30 329 118 455 154 58 16 128 36 155 45 28 8 93 22 145 31 52 9 106 21 120 27
40 17 139 39 223 49 42 4 111 20 152 34 45 16 84 24 96 20 15 -5 19 -4 15 4
-5 7 2 11 16 11 22 -1 22 -1 4 -15z m422 -392 c18 -4 20 -8 10 -15 -10 -7 -9
-12 7 -24 17 -13 18 -16 5 -25 -12 -9 -11 -9 5 -3 26 9 136 14 131 6 -2 -4 36
-6 85 -5 49 1 89 -2 89 -6 0 -5 7 -11 15 -15 8 -3 14 -2 14 2 -4 25 4 32 39
31 35 -1 36 -2 8 -8 -77 -16 17 -46 142 -44 48 1 72 -3 72 -10 0 -7 -17 -12
-42 -12 -62 -1 -178 -16 -178 -24 0 -8 -15 -10 -95 -13 -33 -2 -66 -7 -73 -11
-7 -5 -21 -6 -31 -2 -11 3 -36 -1 -57 -10 -20 -8 -42 -12 -48 -7 -16 11 -113
7 -174 -8 -47 -11 -50 -14 -35 -26 15 -12 4 -13 -77 -8 -52 4 -98 12 -102 18
-10 15 46 38 97 40 22 0 43 6 48 11 4 6 11 4 17 -5 8 -13 10 -12 10 3 0 13 9
17 38 19 20 1 46 2 57 3 11 1 21 4 22 8 6 19 33 35 81 47 29 7 51 15 48 17 -3
3 -27 0 -53 -6 -26 -6 -70 -14 -98 -17 -27 -3 -66 -10 -85 -15 -19 -6 -89 -19
-155 -30 -66 -11 -145 -24 -175 -29 -110 -18 -173 -40 -117 -40 14 0 29 -5 32
-11 10 -15 -2 -24 -17 -12 -34 26 -212 4 -468 -57 -24 -6 -46 -8 -47 -3 -2 4
-8 15 -14 23 -8 11 -12 12 -16 3 -2 -7 -11 -13 -19 -13 -9 0 -13 -4 -9 -9 3
-5 1 -12 -5 -16 -5 -3 -10 0 -10 7 -1 8 -6 6 -15 -6 -7 -10 -18 -15 -24 -11
-6 3 -11 1 -11 -5 0 -6 -8 -9 -18 -5 -11 3 -29 -3 -45 -15 -14 -11 -32 -17
-40 -14 -8 3 -18 1 -22 -5 -8 -13 -55 -15 -55 -2 0 5 14 14 30 20 40 13 38 24
-2 16 -31 -7 -32 -6 -13 9 28 22 10 20 -75 -10 -41 -14 -86 -28 -100 -30 -49
-10 67 38 200 82 74 25 149 52 165 59 17 7 58 16 92 20 34 4 78 12 98 19 20 7
48 12 61 10 22 -2 23 0 12 14 -9 11 -9 14 -1 9 7 -4 34 -1 60 6 103 31 182 47
198 41 9 -4 20 -2 24 5 4 6 36 16 72 22 249 40 481 76 499 78 8 0 26 -2 38 -6z"/>
<path d="M6954 1856 c-87 -26 -110 -55 -121 -155 -5 -43 -36 -91 -59 -91 -6 0
-15 -11 -18 -24 -6 -26 -35 -38 -59 -25 -10 6 -18 5 -22 -1 -3 -6 1 -13 10
-16 14 -6 14 -8 -2 -21 -17 -13 -16 -14 9 -10 15 2 25 0 22 -4 -3 -5 -14 -9
-25 -9 -10 0 -19 -4 -19 -10 0 -13 12 -13 45 0 16 6 23 14 19 22 -5 8 5 9 34
5 24 -3 40 -1 36 4 -3 5 11 9 30 9 37 0 48 -13 21 -24 -21 -8 -7 -36 19 -36
11 0 29 -12 39 -25 18 -25 18 -25 -8 -25 -14 0 -24 4 -21 9 4 5 -4 7 -16 3
l-22 -5 22 -8 c12 -5 22 -14 22 -20 0 -8 -4 -8 -15 1 -12 10 -18 10 -30 0 -9
-8 -29 -10 -50 -7 -24 4 -33 2 -29 -5 4 -6 25 -8 50 -5 24 2 44 3 44 0 0 -15
-23 -43 -35 -43 -8 0 -15 -5 -15 -11 0 -5 -5 -7 -10 -4 -16 10 -24 -23 -10
-40 19 -22 0 -18 -26 6 l-22 20 -64 -19 c-51 -16 -83 -19 -149 -15 -62 3 -80
2 -69 -6 21 -15 0 -27 -45 -25 -29 2 -34 0 -24 -12 8 -10 23 -12 50 -8 l38 6
-4 -33 c-2 -19 -9 -35 -15 -37 -5 -2 -10 -13 -10 -24 0 -14 5 -18 16 -14 26
10 64 -4 64 -25 0 -10 -9 -33 -20 -52 -16 -27 -29 -36 -61 -41 -23 -4 -37 -11
-34 -16 4 -6 14 -9 23 -8 21 4 26 -41 5 -49 -8 -3 -12 -12 -9 -20 7 -16 -23
-115 -37 -124 -5 -3 -8 -9 -8 -13 3 -21 -2 -26 -26 -27 -27 0 -27 -1 -5 -9 20
-8 21 -13 12 -31 -6 -11 -18 -18 -25 -15 -7 2 -21 -4 -31 -15 -10 -11 -24 -17
-31 -15 -7 3 -23 1 -36 -4 -12 -5 -44 -12 -70 -15 -38 -5 -50 -12 -59 -30 -6
-14 -19 -27 -30 -30 -10 -4 -18 -10 -18 -15 0 -5 7 -7 15 -3 13 5 14 2 4 -20
-16 -36 -4 -75 32 -96 l30 -19 -26 -6 c-14 -4 -34 -2 -45 4 -20 11 -69 -4 -56
-17 3 -3 14 0 23 8 10 7 15 9 11 5 -14 -16 14 -36 49 -36 30 0 34 -2 23 -15
-10 -13 -9 -15 9 -15 11 0 21 6 21 14 0 11 10 11 51 4 28 -5 58 -7 65 -4 20 7
31 -24 13 -35 -11 -7 -10 -11 6 -23 11 -9 31 -16 45 -16 25 -2 25 -2 -5 -16
l-30 -15 28 4 c15 2 27 0 27 -4 0 -5 7 -6 16 -2 13 5 13 7 2 14 -17 11 -8 11
28 0 16 -5 42 -12 57 -15 15 -4 25 -11 22 -16 -7 -12 31 -12 60 -1 11 5 34 4
50 -1 17 -6 40 -10 53 -9 12 0 22 -4 22 -9 0 -6 7 -10 15 -10 9 0 12 6 8 17
-5 13 -3 15 13 8 33 -15 175 -21 193 -9 14 10 115 24 285 39 87 7 125 15 184
36 30 11 58 17 63 14 5 -4 12 0 15 8 3 8 22 18 42 22 20 3 57 12 82 20 25 7
57 16 73 19 33 8 35 31 5 63 l-22 23 25 -4 c13 -2 28 -5 33 -5 5 -1 3 -8 -4
-16 -10 -12 -6 -13 27 -8 21 3 39 7 40 7 3 3 -59 33 -81 40 -18 6 -18 7 1 29
26 27 29 106 7 149 -9 17 -11 27 -5 24 7 -4 8 -1 5 8 -3 9 -10 16 -16 16 -5 0
-6 5 -3 10 6 10 -6 14 -35 11 -12 -1 -12 0 -2 7 10 7 10 11 -3 22 -12 10 -15
10 -15 -1 0 -8 -7 -4 -16 9 -22 32 -37 27 -19 -7 8 -17 12 -37 8 -47 -5 -14
-2 -16 16 -11 17 4 21 2 17 -9 -3 -8 -1 -14 3 -14 20 0 21 -35 1 -54 -15 -16
-20 -17 -20 -6 0 9 -18 37 -40 64 -41 49 -47 74 -10 41 17 -15 20 -16 20 -2 0
21 -216 237 -237 237 -5 0 -16 9 -26 20 -9 11 -14 20 -12 20 6 0 52 -29 70
-43 30 -24 149 -106 151 -104 1 1 -4 29 -11 62 -9 38 -11 63 -4 71 6 7 4 15
-6 24 -8 7 -15 22 -15 35 0 12 -9 30 -20 40 -12 10 -18 25 -16 32 8 19 -40
103 -76 135 -23 20 -38 26 -58 22 -16 -4 -32 0 -41 8 -8 8 -22 17 -32 21 -9 3
-22 17 -28 31 -6 13 -21 27 -33 30 -37 10 -132 6 -144 -6 -9 -9 -16 -7 -31 6
-11 10 -25 15 -31 11 -8 -5 -11 1 -8 16 3 27 16 35 115 73 39 15 77 34 83 42
7 8 20 14 29 14 9 0 29 6 43 12 34 16 47 77 20 92 -15 9 -14 11 8 17 23 6 23
7 -7 8 -31 1 -33 3 -33 40 0 32 -8 48 -45 89 -24 27 -41 53 -37 57 4 5 1 5 -6
1 -7 -4 -29 -2 -50 5 -46 15 -80 17 -118 5z m-127 -706 c20 -34 27 -36 74 -16
19 8 57 17 85 21 44 6 52 4 59 -12 9 -22 12 -199 4 -208 -4 -3 -44 31 -90 75
-77 74 -87 81 -117 76 -24 -4 -38 0 -53 15 -10 10 -19 23 -19 28 0 5 -8 12
-17 15 -25 10 -1 26 49 35 4 0 15 -12 25 -29z m-103 -269 c4 -5 0 -12 -6 -14
-9 -4 -8 -6 2 -6 14 -1 60 -69 60 -90 0 -6 -7 -8 -15 -5 -8 4 -15 1 -15 -5 0
-6 9 -11 20 -11 11 0 20 -7 20 -16 0 -9 -5 -12 -12 -8 -7 4 -5 -1 4 -11 15
-17 15 -19 -3 -44 -16 -22 -26 -26 -53 -23 l-34 4 21 21 c21 21 21 22 3 25
-10 2 -21 -1 -25 -6 -3 -5 -17 -12 -31 -13 -14 -2 -25 -11 -26 -19 -2 -29 -4
-32 -17 -21 -15 12 -55 7 -71 -9 -6 -6 1 -7 22 -1 32 10 55 -2 27 -13 -8 -3
-15 -11 -15 -17 0 -7 9 -5 25 5 14 9 25 13 26 9 0 -5 5 3 10 17 10 23 11 24
21 7 6 -13 20 -18 41 -17 56 3 66 0 72 -21 4 -11 19 -25 33 -30 18 -7 23 -13
14 -18 -8 -5 3 -8 26 -9 22 -1 54 -9 73 -17 l34 -16 -33 4 c-18 2 -35 0 -38
-4 -6 -11 42 -23 55 -14 6 3 11 1 11 -4 0 -6 -7 -11 -15 -11 -21 0 -19 -18 3
-23 9 -3 1 -6 -18 -8 -114 -9 -190 -21 -190 -30 0 -12 32 -11 65 1 15 6 45 7
68 3 37 -6 39 -7 17 -14 -18 -4 -9 -7 28 -7 29 0 56 -2 58 -5 7 -7 -164 -20
-175 -13 -5 4 -16 0 -23 -8 -26 -26 -209 -33 -194 -7 3 4 -8 5 -25 3 -45 -7
-34 6 16 19 49 12 51 22 7 25 -75 3 -70 -3 -78 82 -4 42 -8 82 -8 87 -1 21 78
126 91 121 8 -3 13 2 13 14 0 11 5 20 11 20 6 0 9 -6 6 -14 -3 -8 0 -17 8 -19
10 -4 11 1 6 21 -6 20 0 37 27 76 19 28 39 54 44 57 6 4 7 12 4 18 -4 6 -1 11
8 11 8 0 17 -4 20 -9z"/>
<path d="M7700 1449 c0 -4 8 -10 18 -14 13 -6 10 -10 -18 -16 -19 -4 -46 -5
-60 -3 -20 5 -22 3 -10 -6 12 -9 8 -10 -20 -7 -19 2 -41 6 -49 8 -8 2 -16 -3
-18 -12 -3 -11 6 -16 39 -17 24 -1 57 -4 73 -7 17 -3 25 -2 18 1 -10 4 -10 8
0 18 9 11 14 10 24 -3 10 -13 8 -19 -10 -33 -22 -17 -21 -18 36 -18 44 0 57 3
57 15 0 11 11 15 38 14 31 0 33 -2 16 -9 -23 -9 -41 -30 -27 -30 5 0 15 6 22
13 11 10 13 9 7 -1 -13 -22 24 -25 62 -6 20 11 38 22 40 25 1 3 15 4 30 3 l27
-4 -30 15 -30 15 33 -6 c20 -3 32 -2 32 5 0 6 -17 12 -37 12 -21 1 -49 2 -63
3 -14 0 -36 -4 -50 -11 -13 -7 -26 -10 -28 -8 -7 7 9 25 24 25 23 0 16 18 -8
23 -13 2 -3 4 22 2 25 -1 37 0 28 2 -10 3 -18 9 -18 14 0 5 -26 9 -57 8 -49 0
-55 -2 -35 -11 12 -6 22 -14 22 -18 0 -4 -10 -12 -22 -18 -18 -8 -19 -11 -6
-11 9 -1 20 -6 24 -13 4 -6 3 -8 -4 -4 -6 3 -22 1 -37 -6 -18 -8 -22 -14 -13
-20 10 -6 8 -8 -4 -8 -23 0 -23 19 -1 27 15 6 15 7 -3 14 -17 7 -17 8 -1 8 12
1 17 9 17 29 0 22 -4 27 -25 27 -14 0 -25 -3 -25 -6z"/>
<path d="M5873 1066 c-28 -6 -55 -14 -59 -18 -4 -5 -21 -8 -37 -8 -17 0 -27
-3 -24 -6 4 -4 37 -7 74 -6 38 0 60 -2 51 -5 -10 -2 -18 -9 -18 -14 0 -6 5 -7
10 -4 6 4 17 2 24 -4 14 -12 196 -12 196 0 0 4 13 6 30 4 28 -4 107 21 98 30
-9 9 -78 13 -78 5 0 -5 -12 -2 -27 5 -15 8 -36 12 -48 10 -11 -3 -33 -1 -50 5
-28 9 -28 10 10 5 28 -3 35 -2 25 5 -20 13 -112 11 -177 -4z"/>
<path d="M5559 673 c0 -11 -3 -13 -6 -5 -6 15 -30 16 -35 1 -2 -7 -18 -12 -35
-13 -41 -1 -33 -13 16 -21 37 -6 80 -35 52 -35 -18 0 -13 -18 7 -23 9 -3 4 -5
-13 -6 -20 -1 -26 -4 -17 -10 8 -4 30 -6 50 -4 20 2 65 4 100 5 35 1 65 5 68
9 2 5 11 6 19 2 8 -3 15 0 15 5 0 6 -8 13 -17 15 -10 3 0 6 22 7 35 2 37 3 15
10 l-25 8 25 2 c14 1 48 3 77 3 48 2 82 12 45 13 -56 3 -116 4 -181 3 -53 -1
-78 2 -85 12 -30 38 -95 52 -97 22z"/>
<path d="M5323 618 c1 -8 -12 -11 -38 -10 -22 1 -56 -2 -75 -7 -32 -8 -33 -9
-7 -10 29 -1 38 -21 10 -21 -17 -1 -17 -1 0 -14 10 -8 48 -17 85 -21 64 -7 92
-18 92 -36 0 -5 -7 -9 -15 -9 -8 0 -15 5 -15 12 0 6 -7 4 -18 -5 -10 -10 -23
-14 -27 -10 -5 5 -3 0 4 -10 9 -11 17 -14 21 -7 4 6 50 10 121 10 117 -1 136
1 154 12 6 4 17 3 25 -3 23 -14 36 -11 15 4 -10 8 -15 19 -12 24 6 10 -19 28
-34 25 -3 0 -34 -3 -70 -6 -66 -5 -97 3 -85 23 4 6 0 11 -8 11 -9 0 -16 5 -16
10 0 6 11 10 25 10 14 0 25 5 25 11 0 8 -18 10 -55 7 -44 -4 -55 -2 -51 9 4 9
-4 13 -24 13 -18 0 -29 -5 -27 -12z"/>
<path d="M180 613 c-14 -2 -45 -6 -69 -9 -78 -10 -30 -27 81 -29 75 -1 111 -5
133 -18 l30 -16 -25 -2 c-14 -1 -37 -1 -52 0 -16 1 -28 -3 -28 -8 0 -7 25 -11
61 -11 51 0 64 -4 79 -22 15 -19 21 -21 31 -10 11 10 9 12 -7 12 -13 0 -20 7
-21 20 -2 20 4 22 55 23 18 0 22 4 19 18 -3 11 -1 19 4 19 5 0 9 5 9 11 0 5
-8 9 -17 8 -10 -2 -29 3 -42 10 -14 8 -21 9 -17 2 4 -6 2 -11 -3 -11 -6 0 -11
6 -11 13 0 6 -5 4 -11 -5 -6 -11 -22 -18 -40 -18 -17 0 -28 4 -24 10 4 6 -9 9
-32 8 -21 -2 -47 0 -58 3 -11 3 -31 4 -45 2z"/>
<path d="M3012 352 c-8 -5 -10 -16 -6 -27 6 -15 4 -17 -12 -10 -10 4 -30 9
-44 11 -14 2 -44 8 -67 13 -24 4 -43 5 -43 0 0 -5 -12 -9 -26 -9 -14 0 -23 -4
-19 -10 3 -5 18 -10 33 -10 19 0 23 -3 13 -9 -17 -11 1 -23 22 -15 8 3 18 1
22 -5 3 -6 -1 -11 -11 -11 -24 0 -5 -18 21 -20 38 -4 52 1 30 10 -18 8 -17 9
8 9 16 1 35 -6 43 -14 19 -19 139 -13 204 10 23 8 57 15 74 15 17 1 42 7 56
15 24 13 24 14 -17 10 -22 -2 -61 -7 -86 -10 -54 -8 -91 1 -83 21 3 7 0 17 -7
21 -17 10 -47 11 -47 1 0 -4 -7 -8 -15 -8 -8 0 -15 7 -15 15 0 17 -9 19 -28 7z"/>
<path d="M4803 223 c-21 -8 -15 -23 8 -23 15 0 19 -5 15 -15 -3 -9 0 -15 8
-15 14 0 76 -29 76 -36 0 -7 -54 7 -64 17 -5 4 -38 5 -74 2 -48 -5 -63 -3 -58
5 4 7 23 12 43 12 30 0 34 2 23 15 -14 16 -72 19 -105 5 -11 -5 -14 -9 -7 -9
21 -1 13 -21 -9 -21 -13 0 -18 4 -13 12 5 8 -2 9 -26 5 -18 -4 -41 -7 -51 -7
-11 0 -19 -4 -19 -10 0 -5 15 -10 33 -10 17 0 54 -6 82 -13 39 -10 45 -15 30
-21 -17 -6 -16 -8 9 -21 16 -8 41 -15 56 -15 16 0 41 -5 56 -10 21 -8 31 -8
42 3 12 13 10 14 -12 10 -14 -3 -26 -1 -26 5 0 5 15 12 33 15 17 3 41 9 52 13
20 7 20 7 1 -14 -20 -23 -14 -44 6 -24 14 14 62 16 53 2 -10 -15 28 1 42 18
13 16 58 29 49 14 -3 -5 9 -6 27 -3 23 3 27 6 12 9 -29 6 -47 23 -41 39 3 8
-4 17 -17 23 -21 8 -21 9 6 9 21 1 28 5 25 18 -2 9 -10 18 -18 20 -12 4 -12 3
-2 -5 36 -25 -122 -24 -216 2 -9 2 -23 2 -29 -1z"/>
</g>
</svg>
